<svg xmlns="http://www.w3.org/2000/svg" width="30" height="30" viewBox="0 0 30 30">
  <path id="eraser" d="M9.331,28.713a1.254,1.254,0,0,0,.871.349h9.86a1.254,1.254,0,0,0,.871-.349L32.747,17.288a3.493,3.493,0,0,0,0-5.056L25.141,4.875a3.79,3.79,0,0,0-5.228,0l-15,14.507a3.5,3.5,0,0,0,0,5.056Zm14.428-6.1L14.41,13.568,17.6,10.486l9.349,9.041Zm-2.1-16.048a1.3,1.3,0,0,1,1.743,0L31,13.917A1.166,1.166,0,0,1,31,15.6l-2.316,2.239L19.339,8.8Zm-15,14.507,6.013-5.815,9.349,9.041-2.465,2.384H10.712L6.654,22.753A1.166,1.166,0,0,1,6.654,21.068ZM33,31.446H4.656a.606.606,0,0,0-.616.6v1.192a.606.606,0,0,0,.616.6H33a.606.606,0,0,0,.616-.6V32.042A.606.606,0,0,0,33,31.446Z" transform="translate(-3.83 -3.83)" fill="#fefefe"/>
</svg>
