<svg xmlns="http://www.w3.org/2000/svg" width="20" height="20" viewBox="0 0 20 20">
  <g id="history" transform="translate(0)">
    <path id="Path_8" data-name="Path 8" d="M0,0H20V20H0Z" fill="none"/>
    <path id="Path_9" data-name="Path 9" d="M13.092,3a8.775,8.775,0,0,0-9.125,8.643H2.2a.474.474,0,0,0-.345.816l2.749,2.689a.5.5,0,0,0,.7,0L8.056,12.46a.479.479,0,0,0-.355-.816H5.938a6.813,6.813,0,0,1,7-6.723,6.9,6.9,0,0,1,6.8,6.627,6.813,6.813,0,0,1-6.9,6.819,6.908,6.908,0,0,1-4.218-1.421,1,1,0,0,0-1.3.077A.944.944,0,0,0,7.4,18.452a8.874,8.874,0,0,0,5.44,1.834,8.76,8.76,0,0,0,8.869-8.893A8.862,8.862,0,0,0,13.092,3Zm-.5,4.8a.735.735,0,0,0-.739.72v3.534a.967.967,0,0,0,.483.826l3.075,1.777a.758.758,0,0,0,1.015-.25.717.717,0,0,0-.256-.989l-2.838-1.642V8.512a.733.733,0,0,0-.739-.711Z" transform="translate(-1.709 -1.997)" fill="#fefefe"/>
  </g>
</svg>
