<svg id="historyBig" xmlns="http://www.w3.org/2000/svg" width="31" height="31" viewBox="0 0 31 31">
  <path id="Path_7" data-name="Path 7" d="M0,0H31V31H0Z" fill="none"/>
  <path id="Path_8" data-name="Path 8" d="M19.353,3A13.761,13.761,0,0,0,5.209,16.749H2.475a.756.756,0,0,0-.535,1.3L6.2,22.324a.756.756,0,0,0,1.085,0l4.262-4.277a.764.764,0,0,0-.55-1.3H8.264A10.689,10.689,0,0,1,19.109,6.057,10.828,10.828,0,0,1,29.648,16.6,10.7,10.7,0,0,1,18.956,27.441a10.532,10.532,0,0,1-6.538-2.261,1.528,1.528,0,0,0-1.894,2.4A13.53,13.53,0,0,0,18.956,30.5,13.761,13.761,0,0,0,32.7,16.352,13.909,13.909,0,0,0,19.353,3Zm-.779,7.637a1.154,1.154,0,0,0-1.146,1.146v5.621a1.545,1.545,0,0,0,.748,1.314l4.766,2.826a1.147,1.147,0,0,0,1.176-1.97l-4.4-2.612V11.77a1.151,1.151,0,0,0-1.146-1.13Z" transform="translate(-1.708 -1.414)" fill="#fefefe"/>
</svg>
