<svg xmlns="http://www.w3.org/2000/svg" width="19.649" height="20.003" viewBox="0 0 19.649 20.003">
  <path id="setting" d="M19.9,12.66a1,1,0,0,1,0-1.32L21.18,9.9a1,1,0,0,0,.12-1.17l-2-3.46a1,1,0,0,0-1.07-.48l-1.88.38a1,1,0,0,1-1.15-.66l-.61-1.83A1,1,0,0,0,13.64,2h-4a1,1,0,0,0-1,.68L8.08,4.51a1,1,0,0,1-1.15.66L5,4.79a1,1,0,0,0-1,.48L2,8.73A1,1,0,0,0,2.1,9.9l1.27,1.44a1,1,0,0,1,0,1.32L2.1,14.1A1,1,0,0,0,2,15.27l2,3.46a1,1,0,0,0,1.07.48l1.88-.38a1,1,0,0,1,1.15.66l.61,1.83a1,1,0,0,0,1,.68h4a1,1,0,0,0,.95-.68l.61-1.83a1,1,0,0,1,1.15-.66l1.88.38a1,1,0,0,0,1.07-.48l2-3.46a1,1,0,0,0-.12-1.17ZM18.41,14l.8.9-1.28,2.22-1.18-.24a3,3,0,0,0-3.45,2L12.92,20H10.36L10,18.86a3,3,0,0,0-3.45-2l-1.18.24-1.3-2.21.8-.9a3,3,0,0,0,0-4l-.8-.9,1.28-2.2,1.18.24a3,3,0,0,0,3.45-2L10.36,4h2.56l.38,1.14a3,3,0,0,0,3.45,2l1.18-.24,1.28,2.22-.8.9a3,3,0,0,0,0,3.98ZM11.64,8a4,4,0,1,0,4,4A4,4,0,0,0,11.64,8Zm0,6a2,2,0,1,1,2-2A2,2,0,0,1,11.64,14Z" transform="translate(-1.857 -1.999)" fill="#fefefe"/>
</svg>
