<svg xmlns="http://www.w3.org/2000/svg" width="30.522" height="30.5" viewBox="0 0 30.522 30.5">
  <path id="update" d="M30.512,9.3a15.278,15.278,0,0,0-18.887-1.72L11.609,5.4a.674.674,0,0,0-.687-.661l-1.362.01a.673.673,0,0,0-.676.671L8.922,10.4a1.347,1.347,0,0,0,1.363,1.321H10.3l5.1-.037a.673.673,0,0,0,.676-.671l-.011-1.332a.674.674,0,0,0-.686-.661l-.867.006A12.494,12.494,0,0,1,28.6,11.2,11.746,11.746,0,0,1,31.19,24.624a.652.652,0,0,0,.3.866L32.7,26.1a.7.7,0,0,0,.94-.311A14.356,14.356,0,0,0,30.512,9.3ZM29.7,27.75h-.011l-5.1.037a.674.674,0,0,0-.676.671l.011,1.332a.674.674,0,0,0,.686.661l.866-.006a12.5,12.5,0,0,1-14.09-2.17A11.746,11.746,0,0,1,8.794,14.847a.652.652,0,0,0-.3-.866L7.28,13.374a.7.7,0,0,0-.94.311A14.356,14.356,0,0,0,9.471,30.17a15.278,15.278,0,0,0,18.886,1.718l.016,2.187a.674.674,0,0,0,.687.661l1.362-.01a.674.674,0,0,0,.676-.671l-.038-4.983A1.346,1.346,0,0,0,29.7,27.75Z" transform="translate(-4.731 -4.485)" fill="#fefefe" stroke="#fefefe" stroke-width="0.5"/>
</svg>
